<svg width="20" height="20" viewBox="0 0 20 20" fill="none" xmlns="http://www.w3.org/2000/svg">
<mask id="mask0_954_16903" style="mask-type:luminance" maskUnits="userSpaceOnUse" x="0" y="0" width="20" height="19">
<path d="M7.6183 17.9879C6.24003 17.5763 4.99177 16.8149 3.99496 15.7779C4.31566 15.3975 4.51558 14.9301 4.56913 14.4355C4.62268 13.9409 4.52743 13.4415 4.29556 13.0013C4.0637 12.5611 3.70578 12.2001 3.26758 11.9645C2.82939 11.7289 2.33086 11.6294 1.8358 11.6787C1.72276 11.1263 1.66608 10.5638 1.66663 9.99998C1.66663 9.12915 1.79996 8.28915 2.0483 7.49998H2.0833C2.5082 7.50012 2.92612 7.39195 3.2976 7.18571C3.66909 6.97946 3.98188 6.68194 4.20643 6.32122C4.43099 5.96051 4.55991 5.54852 4.58101 5.12415C4.60212 4.69977 4.51471 4.27702 4.32705 3.89581C5.30427 2.98658 6.4856 2.32539 7.77163 1.9679C7.98095 2.3789 8.2999 2.72398 8.69318 2.96496C9.08645 3.20594 9.53873 3.33343 9.99996 3.33331C10.4612 3.33343 10.9135 3.20594 11.3068 2.96496C11.7 2.72398 12.019 2.3789 12.2283 1.9679C13.5143 2.32539 14.6957 2.98658 15.6729 3.89581C15.4838 4.27969 15.3965 4.70567 15.4192 5.13296C15.4419 5.56025 15.574 5.97457 15.8026 6.33624C16.0313 6.69791 16.349 6.99484 16.7252 7.1986C17.1015 7.40236 17.5238 7.50613 17.9516 7.49998C18.2053 8.30904 18.334 9.15208 18.3333 9.99998C18.3333 10.575 18.275 11.1366 18.1641 11.6791C17.6691 11.6298 17.1705 11.7293 16.7323 11.9649C16.2942 12.2006 15.9362 12.5616 15.7044 13.0017C15.4725 13.4419 15.3773 13.9413 15.4308 14.4359C15.4844 14.9305 15.6843 15.3979 16.005 15.7783C15.0081 16.8152 13.7599 17.5764 12.3816 17.9879C12.2198 17.4834 11.9019 17.0434 11.4739 16.7312C11.0459 16.419 10.5298 16.2508 9.99996 16.2508C9.47017 16.2508 8.95407 16.419 8.52603 16.7312C8.098 17.0434 7.78015 17.4834 7.6183 17.9879Z" fill="white" stroke="white" stroke-width="2" stroke-linejoin="round"/>
<path d="M9.99992 12.9166C10.3829 12.9166 10.7622 12.8411 11.1161 12.6946C11.4699 12.548 11.7915 12.3332 12.0623 12.0623C12.3332 11.7915 12.548 11.4699 12.6946 11.1161C12.8411 10.7622 12.9166 10.3829 12.9166 9.99992C12.9166 9.6169 12.8411 9.23763 12.6946 8.88376C12.548 8.52989 12.3332 8.20836 12.0623 7.93752C11.7915 7.66669 11.4699 7.45185 11.1161 7.30527C10.7622 7.15869 10.3829 7.08325 9.99992 7.08325C9.22637 7.08325 8.48451 7.39054 7.93752 7.93752C7.39054 8.48451 7.08325 9.22637 7.08325 9.99992C7.08325 10.7735 7.39054 11.5153 7.93752 12.0623C8.48451 12.6093 9.22637 12.9166 9.99992 12.9166Z" fill="black" stroke="black" stroke-width="2" stroke-linejoin="round"/>
</mask>
<g mask="url(#mask0_954_16903)">
<path d="M0 0H20V20H0V0Z" fill="black"/>
</g>
</svg>
