<svg width="167" height="203" viewBox="0 0 167 203" fill="none" xmlns="http://www.w3.org/2000/svg">
<path d="M159.205 62.9608V128.862C159.205 142.436 152.289 157.972 142.718 167.598V167.598C132.718 177.657 121.26 180.694 107.075 180.694H46.3877" stroke="white" stroke-width="10"/>
<path d="M138.861 77.4511V130.846C138.861 136.369 134.384 140.846 128.861 140.846H46.3876" stroke="white" stroke-width="10"/>
<path d="M109.269 160.77H46.3872" stroke="white" stroke-width="10"/>
<path d="M119.441 91.9413L118.517 125.45" stroke="white" stroke-width="10"/>
<path d="M53.7852 198.807L7.5528 164.848C4.81332 162.836 4.83681 158.736 7.59915 156.755L53.7852 123.639" stroke="white" stroke-width="10"/>
<path d="M7.54883 140.846V74.9447C7.54883 61.3708 14.4651 45.8344 24.0354 36.2084V36.2084C34.0363 26.1495 45.4942 23.1128 59.6787 23.1128H120.366" stroke="white" stroke-width="10"/>
<path d="M27.8931 126.356V72.9609C27.8931 67.438 32.3702 62.9609 37.8931 62.9609H120.366" stroke="white" stroke-width="10"/>
<path d="M57.4844 43.0367L120.366 43.0367" stroke="white" stroke-width="10"/>
<path d="M47.3116 111.865L48.2363 78.3568" stroke="white" stroke-width="10"/>
<path d="M112.968 5L159.2 38.9583C161.94 40.9705 161.916 45.0708 159.154 47.0515L112.968 80.168" stroke="white" stroke-width="10"/>
</svg>
