<svg width="152" height="32" viewBox="0 0 152 32" fill="none" xmlns="http://www.w3.org/2000/svg">
<path d="M8.91406 2.44531C11.5052 2.44531 13.6406 2.75781 15.3203 3.38281C17.013 4.00781 18.2695 4.95182 19.0898 6.21484C19.9102 7.47786 20.3203 9.07292 20.3203 11C20.3203 12.3021 20.0729 13.4414 19.5781 14.418C19.0833 15.3945 18.4323 16.2214 17.625 16.8984C16.8177 17.5755 15.9453 18.1289 15.0078 18.5586L23.4062 31H16.6875L9.87109 20.043H6.64844V31H0.59375V2.44531H8.91406ZM8.48438 7.40625H6.64844V15.1211H8.60156C10.6068 15.1211 12.0391 14.7891 12.8984 14.125C13.7708 13.4479 14.207 12.4583 14.207 11.1562C14.207 9.80208 13.7383 8.83854 12.8008 8.26562C11.8763 7.69271 10.4375 7.40625 8.48438 7.40625ZM35.5352 8.75391C37.5534 8.75391 39.2917 9.14453 40.75 9.92578C42.2083 10.694 43.3346 11.8138 44.1289 13.2852C44.9232 14.7565 45.3203 16.5534 45.3203 18.6758V21.5664H31.2383C31.3034 23.2461 31.8047 24.5677 32.7422 25.5312C33.6927 26.4818 35.0078 26.957 36.6875 26.957C38.0807 26.957 39.3568 26.8138 40.5156 26.5273C41.6745 26.2409 42.8659 25.8112 44.0898 25.2383V29.8477C43.0091 30.3815 41.8763 30.7721 40.6914 31.0195C39.5195 31.2669 38.0938 31.3906 36.4141 31.3906C34.2266 31.3906 32.2865 30.987 30.5938 30.1797C28.9141 29.3724 27.5924 28.1419 26.6289 26.4883C25.6784 24.8346 25.2031 22.7513 25.2031 20.2383C25.2031 17.6862 25.6328 15.5638 26.4922 13.8711C27.3646 12.1654 28.5755 10.8893 30.125 10.043C31.6745 9.18359 33.4779 8.75391 35.5352 8.75391ZM35.5742 12.9922C34.4154 12.9922 33.4518 13.3633 32.6836 14.1055C31.9284 14.8477 31.4922 16.013 31.375 17.6016H39.7344C39.7214 16.7161 39.5586 15.9284 39.2461 15.2383C38.9466 14.5482 38.4909 14.0013 37.8789 13.5977C37.2799 13.194 36.5117 12.9922 35.5742 12.9922Z" fill="#54C0E5"/>
<path d="M56.5898 31H50.6328V2.44531H67V7.40625H56.5898V14.7695H66.2773V19.7109H56.5898V31ZM78.0742 9.16406V31H72.1172V9.16406H78.0742ZM75.1055 0.609375C75.9909 0.609375 76.7526 0.817708 77.3906 1.23438C78.0286 1.63802 78.3477 2.39974 78.3477 3.51953C78.3477 4.6263 78.0286 5.39453 77.3906 5.82422C76.7526 6.24089 75.9909 6.44922 75.1055 6.44922C74.207 6.44922 73.4388 6.24089 72.8008 5.82422C72.1758 5.39453 71.8633 4.6263 71.8633 3.51953C71.8633 2.39974 72.1758 1.63802 72.8008 1.23438C73.4388 0.817708 74.207 0.609375 75.1055 0.609375ZM96.7461 8.75391C99.0768 8.75391 100.952 9.39193 102.371 10.668C103.79 11.931 104.5 13.9622 104.5 16.7617V31H98.543V18.2461C98.543 16.6836 98.2565 15.5052 97.6836 14.7109C97.1237 13.9167 96.2383 13.5195 95.0273 13.5195C93.2044 13.5195 91.9609 14.138 91.2969 15.375C90.6328 16.612 90.3008 18.3958 90.3008 20.7266V31H84.3438V9.16406H88.8945L89.6953 11.957H90.0273C90.4961 11.2018 91.0755 10.5898 91.7656 10.1211C92.4688 9.65234 93.2435 9.30729 94.0898 9.08594C94.9492 8.86458 95.8346 8.75391 96.7461 8.75391ZM117.547 31.3906C115.112 31.3906 113.126 30.4401 111.59 28.5391C110.066 26.625 109.305 23.819 109.305 20.1211C109.305 16.3841 110.079 13.5586 111.629 11.6445C113.178 9.71745 115.203 8.75391 117.703 8.75391C118.745 8.75391 119.663 8.89714 120.457 9.18359C121.251 9.47005 121.935 9.85417 122.508 10.3359C123.094 10.8177 123.589 11.3581 123.992 11.957H124.188C124.109 11.5404 124.012 10.9284 123.895 10.1211C123.79 9.30078 123.738 8.46094 123.738 7.60156V0.609375H129.715V31H125.145L123.992 28.168H123.738C123.361 28.7669 122.885 29.3138 122.312 29.8086C121.753 30.2904 121.082 30.6745 120.301 30.9609C119.52 31.2474 118.602 31.3906 117.547 31.3906ZM119.637 26.6445C121.264 26.6445 122.41 26.1628 123.074 25.1992C123.751 24.2227 124.109 22.7578 124.148 20.8047V20.1602C124.148 18.0378 123.823 16.4167 123.172 15.2969C122.521 14.1641 121.31 13.5977 119.539 13.5977C118.224 13.5977 117.195 14.1641 116.453 15.2969C115.711 16.4297 115.34 18.0638 115.34 20.1992C115.34 22.3346 115.711 23.9427 116.453 25.0234C117.208 26.1042 118.27 26.6445 119.637 26.6445ZM151.18 24.5156C151.18 26 150.828 27.2565 150.125 28.2852C149.435 29.3008 148.4 30.0755 147.02 30.6094C145.639 31.1302 143.921 31.3906 141.863 31.3906C140.34 31.3906 139.031 31.293 137.938 31.0977C136.857 30.9023 135.763 30.5768 134.656 30.1211V25.1992C135.841 25.7331 137.111 26.1758 138.465 26.5273C139.832 26.8659 141.03 27.0352 142.059 27.0352C143.217 27.0352 144.044 26.8659 144.539 26.5273C145.047 26.1758 145.301 25.7201 145.301 25.1602C145.301 24.7956 145.197 24.4701 144.988 24.1836C144.793 23.8841 144.363 23.5521 143.699 23.1875C143.035 22.8099 141.993 22.3216 140.574 21.7227C139.207 21.1497 138.081 20.5703 137.195 19.9844C136.323 19.3984 135.672 18.7083 135.242 17.9141C134.826 17.1068 134.617 16.0846 134.617 14.8477C134.617 12.8294 135.398 11.3125 136.961 10.2969C138.536 9.26823 140.639 8.75391 143.27 8.75391C144.624 8.75391 145.913 8.89062 147.137 9.16406C148.374 9.4375 149.643 9.8737 150.945 10.4727L149.148 14.7695C148.068 14.3008 147.046 13.9167 146.082 13.6172C145.132 13.3177 144.161 13.168 143.172 13.168C142.299 13.168 141.642 13.2852 141.199 13.5195C140.757 13.7539 140.535 14.112 140.535 14.5938C140.535 14.9453 140.646 15.2578 140.867 15.5312C141.102 15.8047 141.544 16.1107 142.195 16.4492C142.859 16.7747 143.829 17.1979 145.105 17.7188C146.342 18.2266 147.417 18.7604 148.328 19.3203C149.24 19.8672 149.943 20.5508 150.438 21.3711C150.932 22.1784 151.18 23.2266 151.18 24.5156Z" fill="#0C96C5"/>
</svg>
