<svg width="30" height="27" viewBox="0 0 30 27" fill="none" xmlns="http://www.w3.org/2000/svg">
<path d="M1.66778 25.3124L0.117837 24.688C0.00708956 24.9702 -0.0264276 25.2773 0.020818 25.5772C0.0680635 25.877 0.194322 26.1583 0.386283 26.3916C0.578245 26.6248 0.828798 26.8013 1.11153 26.9024C1.39427 27.0035 1.69871 27.0256 1.99276 26.9661L1.66778 25.3124ZM9.5108 23.7329L10.3008 22.2462L9.77246 21.9594L9.18581 22.0775L9.5108 23.7329ZM4.37434 18.4224L5.92428 19.0467L6.19593 18.3481L5.86928 17.6748L4.37434 18.4224ZM26.6668 13.4999C26.6668 18.9775 21.912 23.6249 15.7839 23.6249V26.9999C23.5186 26.9999 30 21.07 30 13.4999H26.6668ZM4.90265 13.4999C4.90265 8.02234 9.65913 3.37499 15.7856 3.37499V0C8.05086 0 1.56778 5.92985 1.56778 13.4999H4.90265ZM15.7856 3.37499C21.912 3.37499 26.6668 8.02234 26.6668 13.4999H30C30 5.92985 23.5203 0 15.7856 0V3.37499ZM15.7839 23.6249C13.7756 23.6249 11.9057 23.1187 10.3008 22.2462L8.72083 25.2179C10.893 26.397 13.3193 27.0094 15.7839 26.9999V23.6249ZM1.99276 26.9661L9.83579 25.3866L9.18581 22.0775L1.34279 23.657L1.99276 26.9678V26.9661ZM5.86928 17.6748C5.2348 16.3767 4.90518 14.9483 4.90265 13.4999H1.56778C1.56778 15.5249 2.03776 17.4453 2.87773 19.1699L5.86928 17.6748ZM2.82606 17.798L0.117837 24.6897L3.21438 25.9351L5.92094 19.045L2.8244 17.798H2.82606Z" fill="white"/>
<path d="M10.0006 15.1875C10.921 15.1875 11.6672 14.432 11.6672 13.5C11.6672 12.568 10.921 11.8125 10.0006 11.8125C9.08015 11.8125 8.33398 12.568 8.33398 13.5C8.33398 14.432 9.08015 15.1875 10.0006 15.1875Z" fill="white"/>
<path d="M15.8346 15.1875C16.755 15.1875 17.5012 14.432 17.5012 13.5C17.5012 12.568 16.755 11.8125 15.8346 11.8125C14.9141 11.8125 14.168 12.568 14.168 13.5C14.168 14.432 14.9141 15.1875 15.8346 15.1875Z" fill="white"/>
<path d="M21.6666 15.1875C22.587 15.1875 23.3332 14.432 23.3332 13.5C23.3332 12.568 22.587 11.8125 21.6666 11.8125C20.7462 11.8125 20 12.568 20 13.5C20 14.432 20.7462 15.1875 21.6666 15.1875Z" fill="white"/>
</svg>
