<svg width="40" height="40" viewBox="0 0 40 40" fill="none" xmlns="http://www.w3.org/2000/svg">
<path d="M18.3335 11.6663H21.6668V14.9997H18.3335V11.6663ZM18.3335 18.333H21.6668V28.333H18.3335V18.333ZM20.0002 3.33301C10.8002 3.33301 3.3335 10.7997 3.3335 19.9997C3.3335 29.1997 10.8002 36.6663 20.0002 36.6663C29.2002 36.6663 36.6668 29.1997 36.6668 19.9997C36.6668 10.7997 29.2002 3.33301 20.0002 3.33301ZM20.0002 33.333C12.6502 33.333 6.66683 27.3497 6.66683 19.9997C6.66683 12.6497 12.6502 6.66634 20.0002 6.66634C27.3502 6.66634 33.3335 12.6497 33.3335 19.9997C33.3335 27.3497 27.3502 33.333 20.0002 33.333Z" fill="black"/>
</svg>
