<svg width="50" height="50" viewBox="0 0 50 50" fill="none" xmlns="http://www.w3.org/2000/svg">
<path d="M22.3554 7.64344C21.7303 7.01853 20.8826 6.66748 19.9987 6.66748C19.1148 6.66748 18.2671 7.01853 17.642 7.64344L2.64203 22.6434C2.01713 23.2685 1.66608 24.1162 1.66608 25.0001C1.66608 25.884 2.01713 26.7317 2.64203 27.3568L17.642 42.3568C18.2707 42.964 19.1127 43.2999 19.9867 43.2923C20.8607 43.2848 21.6967 42.9342 22.3148 42.3162C22.9328 41.6981 23.2833 40.8621 23.2909 39.9881C23.2985 39.1141 22.9626 38.2721 22.3554 37.6434L13.332 28.3334H44.9987C45.8828 28.3334 46.7306 27.9822 47.3557 27.3571C47.9808 26.732 48.332 25.8842 48.332 25.0001C48.332 24.116 47.9808 23.2682 47.3557 22.6431C46.7306 22.018 45.8828 21.6668 44.9987 21.6668H13.332L22.3554 12.3568C22.9803 11.7317 23.3313 10.884 23.3313 10.0001C23.3313 9.11622 22.9803 8.26853 22.3554 7.64344Z" fill="black"/>
</svg>
