<svg width="33" height="37" viewBox="0 0 33 37" fill="none" xmlns="http://www.w3.org/2000/svg">
<path d="M24.2792 8.04408C19.9837 3.38374 13.0193 3.38374 8.7238 8.04408C7.70394 9.14302 6.89355 10.4557 6.34026 11.9051C5.78697 13.3544 5.50195 14.9111 5.50195 16.4837C5.50195 18.0562 5.78697 19.6129 6.34026 21.0622C6.89355 22.5116 7.70394 23.8243 8.7238 24.9232L16.5008 33.3628L24.2792 24.9232C25.299 23.8243 26.1094 22.5116 26.6627 21.0622C27.216 19.6129 27.501 18.0562 27.501 16.4837C27.501 14.9111 27.216 13.3544 26.6627 11.9051C26.1094 10.4557 25.299 9.14302 24.2792 8.04408ZM16.5008 20.4722C15.5823 20.4722 14.7202 20.0779 14.0698 19.3621C13.426 18.6504 13.0644 17.6861 13.0644 16.6808C13.0644 15.6755 13.426 14.7112 14.0698 13.9996C14.7188 13.2837 15.5823 12.8894 16.5008 12.8894C17.4193 12.8894 18.2828 13.2837 18.9318 13.9996C19.5756 14.7112 19.9372 15.6755 19.9372 16.6808C19.9372 17.6861 19.5756 18.6504 18.9318 19.3621C18.2828 20.0779 17.4193 20.4722 16.5008 20.4722Z" fill="black"/>
</svg>
